<svg width="100" height="100" viewBox="0 0 100 100" fill="none" xmlns="http://www.w3.org/2000/svg">
<g opacity="0.6" filter="url(#filter0_f_704_5338)">
<path d="M60.666 77.5197C59.7594 77.5197 58.8794 77.2531 58.106 76.7464L46.746 69.173H41.7061C41.0927 69.173 40.506 68.8797 40.1327 68.3997C39.7593 67.8931 39.6261 67.253 39.7861 66.6663C39.9461 66.0263 40.026 65.3863 40.026 64.693C40.026 62.5597 39.2261 60.5064 37.7861 58.9064C36.1594 57.0664 33.8394 56.0264 31.3594 56.0264C28.986 56.0264 26.7993 56.9596 25.146 58.6396C24.6393 59.173 23.866 59.3597 23.1727 59.173C22.4794 58.9597 21.9194 58.3997 21.7594 57.6797C21.4927 56.5063 21.3594 55.2263 21.3594 53.8397V37.8397C21.3594 28.6663 27.5194 22.5063 36.6927 22.5063H63.3594C72.5327 22.5063 78.6927 28.6663 78.6927 37.8397V53.8397C78.6927 58.293 77.226 62.1329 74.426 64.9329C72.0794 67.2796 68.9594 68.6931 65.3594 69.0664V72.853C65.3594 74.5863 64.3993 76.1596 62.8793 76.9863C62.1593 77.333 61.4127 77.5197 60.666 77.5197ZM43.9994 65.1463H47.3327C47.7327 65.1463 48.1061 65.253 48.4527 65.493L60.3193 73.4131C60.6127 73.5997 60.8527 73.5196 60.986 73.4396C61.1193 73.3596 61.3594 73.1996 61.3594 72.8263V67.1463C61.3594 66.053 62.2661 65.1463 63.3594 65.1463C66.7461 65.1463 69.5994 64.0797 71.5994 62.0797C73.626 60.0531 74.6927 57.1996 74.6927 53.813V37.813C74.6927 30.933 70.2394 26.4797 63.3594 26.4797H36.6927C29.8127 26.4797 25.3594 30.933 25.3594 37.813V53.493C27.1727 52.5063 29.226 51.9997 31.3594 51.9997C34.986 51.9997 38.426 53.5464 40.7727 56.213C42.8527 58.533 44.026 61.5197 44.026 64.6663C43.9994 64.8263 43.9994 64.9863 43.9994 65.1463Z" fill="#C9FC6E"/>
<path d="M31.334 77.3333C26.9074 77.3333 22.7474 74.9867 20.5074 71.1733C19.3074 69.2533 18.6674 66.9867 18.6674 64.6667C18.6674 60.7733 20.4007 57.1733 23.414 54.7733C25.654 52.9866 28.4807 52 31.334 52C38.3207 52 44.0007 57.68 44.0007 64.6667C44.0007 66.9867 43.3607 69.2534 42.1607 71.2C41.494 72.32 40.6406 73.3333 39.6273 74.1867C37.414 76.2133 34.454 77.3333 31.334 77.3333ZM31.334 56C29.3607 56 27.494 56.6666 25.9207 57.9199C23.8674 59.5466 22.6674 62.0267 22.6674 64.6667C22.6674 66.24 23.094 67.7866 23.9207 69.1199C25.4674 71.7333 28.3207 73.3333 31.334 73.3333C33.4407 73.3333 35.4674 72.56 37.014 71.1733C37.7074 70.5867 38.294 69.8933 38.7207 69.1466C39.574 67.7866 40.0007 66.24 40.0007 64.6667C40.0007 59.8933 36.1074 56 31.334 56Z" fill="#C9FC6E"/>
<path d="M29.813 69.3066C29.3063 69.3066 28.7997 69.12 28.3997 68.72L25.7597 66.08C24.9864 65.3067 24.9864 64.0265 25.7597 63.2532C26.533 62.4799 27.813 62.4799 28.5863 63.2532L29.8664 64.5333L34.133 60.5865C34.933 59.8399 36.213 59.8933 36.9596 60.6933C37.7063 61.4933 37.653 62.7733 36.853 63.5199L31.173 68.7732C30.773 69.1199 30.293 69.3066 29.813 69.3066Z" fill="#C9FC6E"/>
<path d="M59.334 48H40.6674C39.574 48 38.6674 47.0933 38.6674 46C38.6674 44.9067 39.574 44 40.6674 44H59.334C60.4274 44 61.334 44.9067 61.334 46C61.334 47.0933 60.4274 48 59.334 48Z" fill="#C9FC6E"/>
</g>
<path d="M60.666 77.5197C59.7594 77.5197 58.8794 77.2531 58.106 76.7464L46.746 69.173H41.7061C41.0927 69.173 40.506 68.8797 40.1327 68.3997C39.7593 67.8931 39.6261 67.253 39.7861 66.6663C39.9461 66.0263 40.026 65.3863 40.026 64.693C40.026 62.5597 39.2261 60.5064 37.7861 58.9064C36.1594 57.0664 33.8394 56.0264 31.3594 56.0264C28.986 56.0264 26.7993 56.9596 25.146 58.6396C24.6393 59.173 23.866 59.3597 23.1727 59.173C22.4794 58.9597 21.9194 58.3997 21.7594 57.6797C21.4927 56.5063 21.3594 55.2263 21.3594 53.8397V37.8397C21.3594 28.6663 27.5194 22.5063 36.6927 22.5063H63.3594C72.5327 22.5063 78.6927 28.6663 78.6927 37.8397V53.8397C78.6927 58.293 77.226 62.1329 74.426 64.9329C72.0794 67.2796 68.9594 68.6931 65.3594 69.0664V72.853C65.3594 74.5863 64.3993 76.1596 62.8793 76.9863C62.1593 77.333 61.4127 77.5197 60.666 77.5197ZM43.9994 65.1463H47.3327C47.7327 65.1463 48.1061 65.253 48.4527 65.493L60.3193 73.4131C60.6127 73.5997 60.8527 73.5196 60.986 73.4396C61.1193 73.3596 61.3594 73.1996 61.3594 72.8263V67.1463C61.3594 66.053 62.2661 65.1463 63.3594 65.1463C66.7461 65.1463 69.5994 64.0797 71.5994 62.0797C73.626 60.0531 74.6927 57.1996 74.6927 53.813V37.813C74.6927 30.933 70.2394 26.4797 63.3594 26.4797H36.6927C29.8127 26.4797 25.3594 30.933 25.3594 37.813V53.493C27.1727 52.5063 29.226 51.9997 31.3594 51.9997C34.986 51.9997 38.426 53.5464 40.7727 56.213C42.8527 58.533 44.026 61.5197 44.026 64.6663C43.9994 64.8263 43.9994 64.9863 43.9994 65.1463Z" fill="#C9FC6E"/>
<path d="M31.334 77.3333C26.9074 77.3333 22.7474 74.9867 20.5074 71.1733C19.3074 69.2533 18.6674 66.9867 18.6674 64.6667C18.6674 60.7733 20.4007 57.1733 23.414 54.7733C25.654 52.9866 28.4807 52 31.334 52C38.3207 52 44.0007 57.68 44.0007 64.6667C44.0007 66.9867 43.3607 69.2534 42.1607 71.2C41.494 72.32 40.6406 73.3333 39.6273 74.1867C37.414 76.2133 34.454 77.3333 31.334 77.3333ZM31.334 56C29.3607 56 27.494 56.6666 25.9207 57.9199C23.8674 59.5466 22.6674 62.0267 22.6674 64.6667C22.6674 66.24 23.094 67.7866 23.9207 69.1199C25.4674 71.7333 28.3207 73.3333 31.334 73.3333C33.4407 73.3333 35.4674 72.56 37.014 71.1733C37.7074 70.5867 38.294 69.8933 38.7207 69.1466C39.574 67.7866 40.0007 66.24 40.0007 64.6667C40.0007 59.8933 36.1074 56 31.334 56Z" fill="#C9FC6E"/>
<path d="M29.813 69.3066C29.3063 69.3066 28.7997 69.12 28.3997 68.72L25.7597 66.08C24.9864 65.3067 24.9864 64.0265 25.7597 63.2532C26.533 62.4799 27.813 62.4799 28.5863 63.2532L29.8664 64.5333L34.133 60.5865C34.933 59.8399 36.213 59.8933 36.9596 60.6933C37.7063 61.4933 37.653 62.7733 36.853 63.5199L31.173 68.7732C30.773 69.1199 30.293 69.3066 29.813 69.3066Z" fill="#C9FC6E"/>
<path d="M59.334 48H40.6674C39.574 48 38.6674 47.0933 38.6674 46C38.6674 44.9067 39.574 44 40.6674 44H59.334C60.4274 44 61.334 44.9067 61.334 46C61.334 47.0933 60.4274 48 59.334 48Z" fill="#C9FC6E"/>
<defs>
<filter id="filter0_f_704_5338" x="2.36736" y="6.20635" width="92.6254" height="87.6134" filterUnits="userSpaceOnUse" color-interpolation-filters="sRGB">
<feFlood flood-opacity="0" result="BackgroundImageFix"/>
<feBlend mode="normal" in="SourceGraphic" in2="BackgroundImageFix" result="shape"/>
<feGaussianBlur stdDeviation="8.15" result="effect1_foregroundBlur_704_5338"/>
</filter>
</defs>
</svg>
