<svg xmlns="http://www.w3.org/2000/svg" fill="none" viewBox="0 0 152 30"><g clip-path="url(#a)"><path fill="#DDFE8D" d="M28 .5H0v28h28V.5Z"/><path fill="#000" d="M14.296 23.756c-1.676 0-3.103-.374-4.281-1.12-1.162-.764-1.975-1.818-2.44-3.162l2.465-1.444c.697 1.959 2.14 2.938 4.331 2.938 1.062 0 1.867-.208 2.415-.622.547-.415.821-.971.821-1.668s-.29-1.237-.871-1.618c-.58-.382-1.61-.797-3.087-1.245-1.51-.448-2.73-.979-3.659-1.593-1.128-.796-1.693-1.966-1.693-3.51 0-1.543.548-2.763 1.643-3.659 1.079-.913 2.398-1.369 3.958-1.369 1.378 0 2.589.34 3.634 1.02 1.063.664 1.876 1.602 2.44 2.813l-2.415 1.394c-.73-1.626-1.95-2.439-3.659-2.439-.83 0-1.493.2-1.991.597-.498.382-.747.905-.747 1.569 0 .647.249 1.161.747 1.543.498.365 1.419.755 2.763 1.17.83.282 1.31.448 1.444.498.215.066.647.232 1.294.498.531.215.954.448 1.27.697 1.294 1.012 1.891 2.207 1.792 3.584 0 1.576-.573 2.83-1.718 3.759-1.112.912-2.597 1.369-4.455 1.369Z"/></g><path fill="#fff" d="M43.776 24.24c-1.36 0-2.616-.168-3.768-.504-1.136-.352-2.112-.832-2.928-1.44l.96-2.424a9.813 9.813 0 0 0 2.616 1.32c.944.304 1.984.456 3.12.456 1.264 0 2.176-.208 2.736-.624.56-.416.84-.96.84-1.632 0-.592-.192-1.04-.576-1.344-.384-.32-1.072-.584-2.064-.792L42 16.704c-1.552-.32-2.712-.856-3.48-1.608-.768-.752-1.152-1.76-1.152-3.024 0-1.056.28-1.976.84-2.76.56-.784 1.344-1.392 2.352-1.824 1.008-.432 2.184-.648 3.528-.648 1.2 0 2.312.176 3.336.528 1.024.336 1.88.824 2.568 1.464l-.96 2.304C47.656 10 45.992 9.432 44.04 9.432c-1.136 0-2.024.224-2.664.672-.624.432-.936 1.032-.936 1.8 0 .592.192 1.064.576 1.416.4.352 1.072.624 2.016.816l2.688.528c1.6.32 2.784.848 3.552 1.584.768.72 1.152 1.696 1.152 2.928 0 1.008-.272 1.896-.816 2.664-.544.752-1.312 1.344-2.304 1.776-.992.416-2.168.624-3.528.624Zm9.325 4.944v-14.28a24.163 24.163 0 0 0-.192-3.024h2.904l.216 1.992c.32-.688.84-1.232 1.56-1.632.72-.4 1.536-.6 2.448-.6 1.072 0 2.008.256 2.808.768.8.496 1.424 1.216 1.872 2.16.448.928.672 2.048.672 3.36 0 1.312-.224 2.44-.672 3.384-.448.944-1.072 1.672-1.872 2.184-.8.496-1.736.744-2.808.744-.88 0-1.672-.184-2.376-.552-.688-.384-1.208-.896-1.56-1.536v7.032h-3Zm6.096-7.248c.96 0 1.728-.328 2.304-.984.576-.672.864-1.68.864-3.024s-.288-2.344-.864-3c-.576-.656-1.344-.984-2.304-.984-.944 0-1.704.328-2.28.984-.576.656-.864 1.656-.864 3s.288 2.352.864 3.024c.576.656 1.336.984 2.28.984Zm14.259 2.304c-1.248 0-2.328-.256-3.24-.768a5.4 5.4 0 0 1-2.136-2.184c-.496-.944-.744-2.064-.744-3.36 0-1.296.248-2.408.744-3.336a5.4 5.4 0 0 1 2.136-2.184c.912-.512 1.992-.768 3.24-.768 1.248 0 2.328.256 3.24.768a5.207 5.207 0 0 1 2.136 2.184c.512.928.768 2.04.768 3.336 0 1.296-.256 2.416-.768 3.36a5.207 5.207 0 0 1-2.136 2.184c-.912.512-1.992.768-3.24.768Zm0-2.304c.944 0 1.696-.328 2.256-.984.56-.672.84-1.68.84-3.024s-.28-2.344-.84-3c-.56-.656-1.312-.984-2.256-.984-.944 0-1.696.328-2.256.984-.56.656-.84 1.656-.84 3s.28 2.352.84 3.024c.56.656 1.312.984 2.256.984ZM82.163 24v-9.024c0-.512-.016-1.032-.048-1.56a15.722 15.722 0 0 0-.12-1.536h2.904l.216 2.136c.352-.8.84-1.392 1.464-1.776.624-.4 1.336-.6 2.136-.6.288 0 .52.016.696.048.176.016.352.056.528.12l-.024 2.64a3.308 3.308 0 0 0-.792-.24 5.37 5.37 0 0 0-.792-.048c-1.04 0-1.824.32-2.352.96-.528.624-.792 1.432-.792 2.424V24h-3.024Zm15.31.24c-2.913 0-4.369-1.504-4.369-4.512v-5.592h-2.328V11.88h2.328V8.784l3-.768v3.864h3.24v2.256h-3.24v5.4c0 .832.16 1.416.48 1.752.32.336.76.504 1.32.504.304 0 .56-.024.768-.072.224-.048.44-.112.648-.192v2.376a3.802 3.802 0 0 1-.912.24c-.32.064-.632.096-.936.096Zm7.677-.048a5.08 5.08 0 0 1-2.064-.432 4.036 4.036 0 0 1-1.632-1.296c-.416-.592-.624-1.272-.624-2.04 0-.864.224-1.56.672-2.088.464-.528 1.2-.896 2.208-1.104.96-.224 2.568-.336 4.824-.336v-.6c0-.8-.176-1.384-.528-1.752-.352-.368-.944-.552-1.776-.552-1.296 0-2.648.416-4.056 1.248l-.888-2.112c.64-.4 1.408-.744 2.304-1.032a9.278 9.278 0 0 1 2.856-.432c1.648 0 2.896.4 3.744 1.2.848.8 1.272 2.072 1.272 3.816V24h-2.928v-1.848c-.352.72-.84 1.24-1.464 1.56-.624.32-1.264.48-1.92.48Zm.576-2.208c.624 0 1.144-.136 1.56-.408a2.55 2.55 0 0 0 .936-1.08 3.54 3.54 0 0 0 .312-1.464v-.528c-1.216 0-2.168.056-2.856.168-.672.096-1.152.272-1.44.528-.272.24-.408.56-.408.96 0 .496.16.928.48 1.296.32.352.792.528 1.416.528Zm14.443 2.256c-1.248 0-2.344-.256-3.288-.768a5.358 5.358 0 0 1-2.16-2.184c-.512-.96-.768-2.096-.768-3.408 0-1.312.256-2.432.768-3.36a5.396 5.396 0 0 1 2.184-2.136c.928-.496 2.016-.744 3.264-.744.8 0 1.576.128 2.328.384.768.24 1.392.592 1.872 1.056l-.912 2.088c-.432-.4-.92-.696-1.464-.888a4.236 4.236 0 0 0-1.56-.312c-1.072 0-1.912.336-2.52 1.008-.592.672-.888 1.648-.888 2.928s.296 2.264.888 2.952c.608.688 1.448 1.032 2.52 1.032.496 0 1.008-.096 1.536-.288a4.436 4.436 0 0 0 1.488-.888l.912 2.064c-.496.464-1.128.824-1.896 1.08a7.103 7.103 0 0 1-2.304.384Zm10.893 0c-2.959 0-4.439-1.656-4.439-4.968V11.88h3v7.368c0 .896.184 1.56.552 1.992.368.416.928.624 1.68.624.848 0 1.536-.288 2.064-.864.544-.576.816-1.336.816-2.28v-6.84h2.999V24h-2.927v-1.8c-.816 1.36-2.064 2.04-3.745 2.04Zm14.249 0c-1.04 0-2-.12-2.88-.36-.864-.256-1.592-.608-2.184-1.056l.84-2.016c.608.416 1.28.736 2.016.96.736.224 1.48.336 2.232.336.8 0 1.392-.136 1.776-.408.4-.272.6-.64.6-1.104 0-.704-.52-1.16-1.56-1.368l-2.4-.456c-2.096-.432-3.144-1.528-3.144-3.288 0-1.136.448-2.056 1.344-2.76.912-.72 2.144-1.08 3.696-1.08.896 0 1.736.12 2.52.36.8.24 1.472.6 2.016 1.08l-.864 1.944a5.675 5.675 0 0 0-1.704-.936 5.649 5.649 0 0 0-1.872-.336c-.832 0-1.44.152-1.824.456-.384.288-.576.664-.576 1.128 0 .72.48 1.184 1.44 1.392l2.4.456c1.072.208 1.88.576 2.424 1.104.56.512.84 1.216.84 2.112 0 1.2-.472 2.144-1.416 2.832-.944.672-2.184 1.008-3.72 1.008Z"/><defs><clipPath id="a"><rect width="28" height="28" y=".5" fill="#fff" rx="14"/></clipPath></defs></svg>