<svg width="600" height="600" viewBox="0 0 600 600" fill="none" xmlns="http://www.w3.org/2000/svg">
<g clip-path="url(#clip0_1391_6551)">
<path d="M600 0H0V600H600V0Z" fill="#C9FC6E"/>
<path d="M300.925 491.334C270.699 491.334 242.785 487.6 217.181 480.133C191.934 472.309 170.242 461.641 152.107 448.129L173.443 394.255C191.578 407.057 210.958 416.836 231.583 423.592C252.563 430.349 275.678 433.727 300.925 433.727C329.018 433.727 349.287 429.104 361.733 419.858C374.179 410.613 380.402 398.522 380.402 383.587C380.402 370.43 376.135 360.473 367.6 353.717C359.066 346.605 343.775 340.738 321.728 336.115L261.454 323.846C226.96 316.735 201.179 304.822 184.111 288.109C167.042 271.396 158.507 248.993 158.507 220.9C158.507 197.431 164.731 176.984 177.176 159.559C189.622 142.135 207.047 128.622 229.45 119.021C251.852 109.42 277.989 104.619 307.859 104.619C334.529 104.619 359.243 108.53 382.002 116.354C404.761 123.821 423.785 134.667 439.076 148.891L417.74 200.098C387.158 174.85 350.176 162.226 306.793 162.226C281.545 162.226 261.809 167.204 247.585 177.161C233.717 186.763 226.783 200.098 226.783 217.166C226.783 230.324 231.05 240.814 239.584 248.637C248.474 256.46 263.41 262.505 284.39 266.773L344.131 278.507C379.691 285.619 406.005 297.354 423.074 313.712C440.143 329.714 448.677 351.406 448.677 378.787C448.677 401.189 442.632 420.925 430.541 437.994C418.451 454.707 401.382 467.864 379.335 477.466C357.288 486.711 331.151 491.334 300.925 491.334Z" fill="#161616"/>
</g>
<defs>
<clipPath id="clip0_1391_6551">
<rect width="600" height="600" rx="300" fill="white"/>
</clipPath>
</defs>
</svg>
