<svg xmlns="http://www.w3.org/2000/svg" fill="none" viewBox="0 0 200 200"><path fill="#666" d="M95.5 120.667c-16.334 0-29.668-13.334-29.668-29.667 0-16.333 13.334-29.667 29.667-29.667 16.334 0 29.667 13.334 29.667 29.667 0 16.333-13.333 29.667-29.667 29.667Zm0-46.75c-9.418 0-17.168 7.666-17.168 17.166S86 108.25 95.5 108.25c9.5 0 17.167-7.667 17.167-17.167 0-9.5-7.667-17.166-17.167-17.166ZM138.75 174.583c-3.416 0-6.25-2.833-6.25-6.25 0-16-16.583-29-37-29-20.416 0-37 13-37 29 0 3.417-2.833 6.25-6.25 6.25-3.416 0-6.25-2.833-6.25-6.25 0-22.833 22.167-41.5 49.5-41.5 27.334 0 49.5 18.584 49.5 41.5 0 3.417-2.833 6.25-6.25 6.25Z"/><path fill="#666" d="M95.833 189.583c-47.083 0-85.416-38.333-85.416-85.416 0-47.084 38.333-85.417 85.416-85.417 11.584 0 22.75 2.25 33.25 6.667 3 1.25 4.5 4.583 3.5 7.666-.916 2.75-1.333 5.667-1.333 8.584 0 4.916 1.333 9.75 3.917 13.916 1.333 2.334 3.083 4.417 5.083 6.167 7.25 6.583 18 8.667 26.417 5.667 3.083-1.167 6.583.416 7.833 3.5 4.5 10.583 6.75 21.833 6.75 33.333 0 47-38.333 85.333-85.417 85.333Zm0-158.333c-40.166 0-72.916 32.667-72.916 72.917s32.75 72.916 72.916 72.916c40.167 0 72.917-32.666 72.917-72.916 0-8-1.333-15.917-3.833-23.5-11.5 2-24.084-1.584-32.917-9.667a35.67 35.67 0 0 1-7.5-9c-3.667-6-5.667-13.083-5.667-20.333 0-2.25.167-4.417.584-6.584-7.584-2.583-15.5-3.833-23.584-3.833Z"/><path fill="#666" d="M158.333 81.25c-9.833 0-19.166-3.667-26.416-10.25a35.67 35.67 0 0 1-7.5-9c-3.667-6-5.667-13.083-5.667-20.333 0-4.25.667-8.417 2-12.417 1.833-5.667 5-10.917 9.25-15.167 7.5-7.666 17.583-12 28.417-12 11.333 0 22.083 4.834 29.416 13.167C194.333 22.5 198 31.833 198 41.667c0 3.166-.417 6.333-1.25 9.333a35.527 35.527 0 0 1-4.583 11.083 38.412 38.412 0 0 1-21.5 17.084c-3.75 1.416-7.917 2.083-12.334 2.083Zm0-66.667c-7.416 0-14.333 2.917-19.416 8.167-2.917 3-5 6.416-6.25 10.333-.917 2.75-1.334 5.667-1.334 8.584 0 4.916 1.334 9.75 3.917 13.916 1.333 2.333 3.083 4.417 5.083 6.167 7.25 6.583 18 8.667 26.417 5.667 6.333-2 11.5-6.167 14.833-11.75 1.5-2.417 2.5-5 3.084-7.584.583-2.166.833-4.25.833-6.416 0-6.667-2.5-13.084-7-18.084-5.083-5.75-12.417-9-20.167-9Z"/><path fill="#666" d="M170.75 47.75h-24.917c-3.416 0-6.25-2.834-6.25-6.25 0-3.417 2.834-6.25 6.25-6.25h24.917c3.417 0 6.25 2.833 6.25 6.25 0 3.416-2.75 6.25-6.25 6.25Z"/><path fill="#666" d="M158.333 60.5c-3.416 0-6.25-2.833-6.25-6.25V29.334c0-3.417 2.834-6.25 6.25-6.25 3.417 0 6.25 2.833 6.25 6.25V54.25c0 3.5-2.833 6.25-6.25 6.25Z"/></svg>