<svg width="96" height="16" viewBox="0 0 96 16" fill="none" xmlns="http://www.w3.org/2000/svg">
<path fill-rule="evenodd" clip-rule="evenodd" d="M88.3308 1.23033L90.1108 5.65031L94.6708 6.0613C94.9868 6.0903 95.1158 6.5033 94.8758 6.7213L91.4178 9.86329L92.4538 14.5373C92.5258 14.8613 92.1898 15.1173 91.9188 14.9443L87.9998 12.4673L84.0818 14.9443C83.8098 15.1163 83.4748 14.8613 83.5468 14.5373L84.5828 9.86329L81.1238 6.7213C80.8838 6.5033 81.0118 6.0893 81.3288 6.0613L85.8888 5.65031L87.6688 1.23033C87.6938 1.16273 87.739 1.10442 87.7981 1.06325C87.8573 1.02207 87.9277 1 87.9998 1C88.0719 1 88.1422 1.02207 88.2014 1.06325C88.2606 1.10442 88.3057 1.16273 88.3308 1.23033ZM8.33077 1.23033L10.1108 5.65031L14.6708 6.0613C14.9868 6.0903 15.1158 6.5033 14.8758 6.7213L11.4178 9.86329L12.4538 14.5373C12.5258 14.8613 12.1898 15.1173 11.9178 14.9443L7.99977 12.4673L4.08177 14.9443C3.80977 15.1163 3.47477 14.8613 3.54677 14.5373L4.58277 9.86329L1.12477 6.7213C0.884773 6.5033 1.01177 6.0893 1.32877 6.0613L5.88877 5.65031L7.66877 1.23033C7.69382 1.16273 7.73897 1.10442 7.79815 1.06325C7.85732 1.02207 7.92768 1 7.99977 1C8.07186 1 8.14223 1.02207 8.2014 1.06325C8.26057 1.10442 8.30572 1.16273 8.33077 1.23033ZM28.3308 1.23033L30.1108 5.65031L34.6708 6.0613C34.9868 6.0903 35.1158 6.5033 34.8758 6.7213L31.4178 9.86329L32.4538 14.5373C32.5258 14.8613 32.1898 15.1173 31.9188 14.9443L27.9998 12.4673L24.0818 14.9443C23.8098 15.1163 23.4748 14.8613 23.5468 14.5373L24.5828 9.86329L21.1248 6.7213C20.8848 6.5033 21.0118 6.0893 21.3288 6.0613L25.8888 5.65031L27.6688 1.23033C27.6938 1.16273 27.739 1.10442 27.7981 1.06325C27.8573 1.02207 27.9277 1 27.9998 1C28.0719 1 28.1422 1.02207 28.2014 1.06325C28.2606 1.10442 28.3057 1.16273 28.3308 1.23033ZM48.3308 1.23033L50.1108 5.65031L54.6708 6.0613C54.9868 6.0903 55.1158 6.5033 54.8758 6.7213L51.4178 9.86329L52.4538 14.5373C52.5258 14.8613 52.1898 15.1173 51.9188 14.9443L47.9998 12.4673L44.0818 14.9443C43.8098 15.1163 43.4748 14.8613 43.5468 14.5373L44.5828 9.86329L41.1238 6.7213C40.8838 6.5033 41.0118 6.0893 41.3288 6.0613L45.8888 5.65031L47.6688 1.23033C47.6938 1.16273 47.739 1.10442 47.7981 1.06325C47.8573 1.02207 47.9277 1 47.9998 1C48.0719 1 48.1422 1.02207 48.2014 1.06325C48.2606 1.10442 48.3057 1.16273 48.3308 1.23033ZM68.3308 1.23033L70.1108 5.65031L74.6708 6.0613C74.9868 6.0903 75.1158 6.5033 74.8758 6.7213L71.4178 9.86329L72.4538 14.5373C72.5258 14.8613 72.1898 15.1173 71.9188 14.9443L67.9998 12.4673L64.0818 14.9443C63.8098 15.1163 63.4748 14.8613 63.5468 14.5373L64.5828 9.86329L61.1238 6.7213C60.8838 6.5033 61.0118 6.0893 61.3288 6.0613L65.8888 5.65031L67.6688 1.23033C67.6938 1.16273 67.739 1.10442 67.7981 1.06325C67.8573 1.02207 67.9277 1 67.9998 1C68.0719 1 68.1422 1.02207 68.2014 1.06325C68.2606 1.10442 68.3057 1.16273 68.3308 1.23033Z" fill="#666666" stroke="#666666"/>
</svg>
