<svg xmlns="http://www.w3.org/2000/svg" fill="none" viewBox="0 0 63 63"><path fill="#C9FC6E" d="M58.625 3.85h-9.712c-.175 0-.263.088-.35.175-.088.088-.088.263-.088.438L50.4 12.25c.087.175.263.35.438.35h5.774c.263 0 .438-.175.438-.35l1.925-7.787c0-.175 0-.263-.087-.438 0-.087-.088-.175-.263-.175Zm-2.275 7.787h-5.075l-1.663-6.824H58.1l-1.75 6.824Z"/><path fill="#fff" d="M50.925 23.275H28.613l-4.026-4.025v-6.738c0-.175 0-.35-.087-.524-.262.262-.613.437-.962.612v6.825c0 .087.087.262.174.35l4.375 4.375c.088.088.175.175.35.175h22.488c.788 0 1.488.613 1.488 1.488 0 .787-.613 1.487-1.488 1.487H35.35c-.263 0-.525.175-.525.525v9.188H28v-8.4c0-.088-.087-.263-.175-.35L21 21.436a1.449 1.449 0 0 1-.438-1.05v-7.612a5.885 5.885 0 0 1-.962-.613c0 .175-.088.35-.088.525v7.788c0 .612.263 1.225.7 1.75l6.738 6.737v17.851h-3.412a2.446 2.446 0 0 0-2.45 2.45c0 1.312 1.05 2.362 2.362 2.45L21 54.075c-.438.438-.7 1.05-.7 1.75s.262 1.225.7 1.75c.438.438 1.05.7 1.75.7s1.225-.262 1.75-.7l6.125-6.125h2.888c1.312 0 2.45-1.05 2.45-2.45V28.087h15.05c1.312 0 2.45-1.05 2.45-2.45-.175-1.312-1.226-2.362-2.538-2.362ZM22.313 48.913c0-.788.612-1.488 1.487-1.488h3.325v.438l-2.45 2.45h-.963c-.787.087-1.4-.526-1.4-1.4Zm12.6-1.925v1.925c0 .787-.613 1.487-1.488 1.487H31.5c.35-.438.525-.962.525-1.487v-7.788c0-.263-.175-.525-.525-.525-.262 0-.525.175-.525.525v7.788c0 .35-.175.787-.438 1.05l-.437.437-.963.962-5.425 5.425c-.524.526-1.487.526-2.012 0a1.449 1.449 0 0 1-.438-1.05c0-.437.175-.787.438-1.05l3.413-3.412.962-.962L28 48.388c.087-.088.175-.175.175-.35V37.713H35v9.274h-.087Z"/><path fill="#fff" d="M31.5 22.313c1.837 0 3.413-1.488 3.413-3.413 0-1.925-1.488-3.412-3.413-3.412-1.837 0-3.413 1.487-3.413 3.412 0 1.925 1.576 3.413 3.413 3.413Zm0-5.863c1.313 0 2.45 1.05 2.45 2.45 0 1.313-1.05 2.45-2.45 2.45-1.4 0-2.45-1.05-2.45-2.45 0-1.313 1.137-2.45 2.45-2.45Z"/><path fill="#C9FC6E" d="M22.137 12.95c.526 0 1.05-.087 1.488-.35.35-.175.613-.35.962-.612.613-.613 1.05-1.488 1.05-2.45 0-1.838-1.487-3.413-3.412-3.413-1.925 0-3.413 1.487-3.413 3.412 0 .963.35 1.838 1.05 2.45.263.263.613.438.963.613.262.175.788.35 1.313.35Zm-1.925-1.925c-.35-.438-.524-.875-.524-1.488 0-1.312 1.05-2.45 2.45-2.45 1.4 0 2.45 1.05 2.45 2.45 0 .525-.175 1.05-.526 1.488-.175.262-.437.438-.7.612-.35.175-.787.35-1.224.35-.438 0-.876-.087-1.226-.35-.262-.175-.524-.35-.7-.612Z"/></svg>