<svg xmlns="http://www.w3.org/2000/svg" fill="none" viewBox="0 0 63 63"><path fill="#C9FC6E" d="M59 55H5v1h54v-1Z"/><path fill="#fff" d="M31.5 15.8c1.9 0 3.5-1.6 3.5-3.5s-1.6-3.5-3.5-3.5-3.5 1.6-3.5 3.5 1.6 3.5 3.5 3.5Zm0-6c1.4 0 2.5 1.1 2.5 2.5s-1.1 2.5-2.5 2.5-2.5-1.1-2.5-2.5 1.1-2.5 2.5-2.5ZM51.4 16.8H27.5c-.7 0-1.3.3-1.8.7L14.5 28.8c-.9.9-1 2.3-.3 3.3.4.6 1.1 1 1.8 1h.2c.7 0 1.3-.3 1.8-.7l9-9v9L21.4 38h-8.9c-1.3 0-2.4.9-2.6 2.1-.1.7.1 1.5.6 2s1.2.9 1.9.9h10c.7 0 1.3-.3 1.8-.7l6.3-6.3h1.3l3 7.2v9.4c0 1.3.9 2.4 2.1 2.6h.4c.6 0 1.2-.2 1.6-.6.6-.5.9-1.2.9-1.9v-10c0-.3-.1-.7-.2-1l-1.4-3.4-2.2-5.5v-11h15.5c.7 0 1.4-.3 1.9-.9.5-.6.7-1.3.6-2-.2-1.2-1.3-2.1-2.6-2.1ZM38.8 52.6c0 .4-.2.9-.5 1.1-.3.3-.8.4-1.2.3-.7-.1-1.2-.8-1.2-1.6v-9.7l-3.2-7.6c-.1-.2-.3-.3-.5-.3h-1.8c-.1 0-.3.1-.4.1l-6.5 6.5c-.3.3-.7.4-1.1.4h-10c-.4 0-.9-.2-1.1-.5-.3-.3-.4-.8-.3-1.2.1-.7.8-1.2 1.6-1.2h9.1c.1 0 .3-.1.4-.1l5.9-5.9c.1-.1.1-.2.1-.4v-.7h7v1.3l3.7 8.9c.1.2.1.4.1.6v10h-.1Zm13.8-32.3c-.3.3-.7.5-1.1.5h-16c-.3 0-.5.2-.5.5v9.5h-7v-8.7c0-.2-.1-.4-.3-.5-.2-.1-.4 0-.5.1l-9.9 9.9c-.3.3-.7.5-1.2.4-.4 0-.8-.3-1.1-.6-.4-.6-.3-1.4.2-2l11.2-11.2c.3-.3.7-.4 1.1-.4h23.9c.8 0 1.5.5 1.6 1.2 0 .5-.1.9-.4 1.3Z"/><path fill="#C9FC6E" d="M22.4 48.1c-1.9 0-3.5 1.6-3.5 3.5s1.6 3.5 3.5 3.5 3.5-1.6 3.5-3.5-1.6-3.5-3.5-3.5Zm0 6c-1.4 0-2.5-1.1-2.5-2.5s1.1-2.5 2.5-2.5 2.5 1.1 2.5 2.5-1.1 2.5-2.5 2.5Z"/></svg>