<svg xmlns="http://www.w3.org/2000/svg" fill="none" viewBox="0 0 63 63"><path fill="#fff" d="M44.991 12.806c-.97-.167-1.843.054-2.617.662-.775.609-1.209 1.338-1.376 2.309-.167.97.054 1.843.663 2.617.608.774 1.337 1.209 2.307 1.376.437.096.947.07 1.334-.028a2.769 2.769 0 0 0 1.187-.61c.774-.609 1.209-1.338 1.376-2.308.167-.97-.054-1.843-.663-2.618-.608-.774-1.24-1.233-2.21-1.4Zm2 3.826c-.144.656-.409 1.238-1.014 1.701a2.118 2.118 0 0 1-1.841.466c-.656-.143-1.239-.409-1.701-1.014-.463-.605-.61-1.186-.466-1.841.143-.656.408-1.239 1.013-1.701.267-.17.533-.341.92-.44.292-.073.607-.05 1.02-.05.655.143 1.237.408 1.7 1.013.341.533.513 1.211.37 1.866ZM18.636 49.287c.582-.147 1.211-.513 1.573-1.12l9.993-16.764 1.21-.925 8.858-6.574c.774-.609 1.208-1.338 1.375-2.308.167-.971-.053-1.844-.662-2.618-.17-.266-.438-.508-.802-.725-.486-.29-.972-.58-1.506-.65l-2.037-.439a2.118 2.118 0 0 0-1.841.467c-.509.438-1.312 1.359-1.312 1.359l-2.202 2.439-4.034 3.604L25.7 26.25c-1.138.803-1.351 2.405-.548 3.542l.17.267L15.91 45.85c-.725 1.215-.332 2.766.858 3.393.631.046 1.286.19 1.868.043Zm14.005-27.79 1.911-2.365c.12-.34.514-.435.878-.63 0 0 .652-.111.652-.14l2.45.308c.631.046 1.142.433 1.555.844 0 0 .025.097.122.073.438.508.61 1.186.466 1.841-.144.656-.409 1.239-1.014 1.701l-8.422 6.258-2.8-3.727-.17-.267 4.372-3.896ZM16.783 46.042l9.558-16.035c.073-.121.096-.437-.025-.509l-.438-.508c-.488-.702-.393-1.551.285-2.135l1.21-.925 2.97 3.993-.871.633c-.097.024-.073.121-.17.146l-9.968 16.86c-.434.73-1.307.95-2.035.516-.705-.338-.95-1.307-.516-2.036Z"/><circle cx="32.637" cy="33.476" r="2.5" stroke="#C9FC6E"/><circle cx="16.137" cy="41.976" r="1" stroke="#C9FC6E"/><path stroke="#C9FC6E" d="M15.637 49.976h8l7.5-14.5"/></svg>