<svg xmlns="http://www.w3.org/2000/svg" fill="none" viewBox="0 0 63 63"><path fill="#C9FC6E" d="M63 30.3 32.7 0h-1.4L63 31.7v-1.4Z"/><path fill="#fff" d="M36 32.8h2.6l4.6 4.6c-.4.3-.9.4-1.4.4H41l.5.5.5.4c.9 0 1.7-.4 2.3-1l1.4-1.4c1-1 1-2.6 0-3.5l-6-6 5.3-5.3c.5-.5.7-1.1.7-1.8s-.3-1.3-.7-1.8c-.5-.5-1.1-.7-1.8-.7s-1.3.2-1.8.7L34.3 25c-1 1-1 2.6 0 3.5l3.2 3.2H35l.5.5.5.6Zm-.9-5c-.6-.6-.6-1.5 0-2.1l7.1-7.1c.6-.6 1.5-.6 2.1 0 .3.3.4.7.4 1.1 0 .4-.2.8-.4 1.1l-5.7 5.6c-.1.1-.1.2-.1.4 0 .1.1.3.1.4l5.6 5.6.8.7c.4.4.5 1.1.3 1.7-.1.2-.2.3-.3.5l-.2.2-.8.8-3.9-3.9-.5-.5-.5-.5-4-4ZM22.8 38.8c1.9 0 3.5-1.6 3.5-3.5s-1.6-3.5-3.5-3.5-3.5 1.6-3.5 3.5 1.6 3.5 3.5 3.5Zm0-6c1.4 0 2.5 1.1 2.5 2.5s-1.1 2.5-2.5 2.5-2.5-1.1-2.5-2.5 1.2-2.5 2.5-2.5Z"/><path fill="#fff" d="M27.4 28.3v7c0 1.9 1.6 3.5 3.5 3.5h9.8l-.5-.5-.5-.5h-8.8c-1.4 0-2.5-1.1-2.5-2.5V28.2c0-.1-.1-.3-.1-.4l-5.1-5.1c-.3-.3-.4-.7-.4-1.1 0-.4.2-.9.5-1.1.6-.5 1.5-.4 2.1.2l5.6 5.6c.3.3.4.7.4 1.1v7.1c.1.2.2.4.5.4s.5-.2.5-.5v-1.5h2.3l-.5-.5-.5-.5h-1.3v-4.5c0-.7-.3-1.3-.7-1.8L26.1 20c-.5-.5-1.2-.8-1.9-.8-.6 0-1.1.2-1.6.6-.6.5-.9 1.2-.9 1.9s.3 1.3.7 1.8l5 4.8Z"/></svg>