<svg xmlns="http://www.w3.org/2000/svg" fill="none" viewBox="0 0 63 63"><path fill="#fff" d="M31.4 18.45c1.9 0 3.5-1.6 3.5-3.5s-1.6-3.5-3.5-3.5-3.5 1.5-3.5 3.5 1.6 3.5 3.5 3.5Zm2.5-3.5c0 1.4-1.1 2.5-2.5 2.5s-2.5-1.1-2.5-2.5 1.1-2.5 2.5-2.5 2.5 1.1 2.5 2.5Z"/><path fill="#fff" d="M28.2 20.45h6.4c.1 0 .3-.1.4-.1l9.2-9.2h-1.5l-8.3 8.3h-5.9l-8.3-8.3h-1.5l9.2 9.2c.1 0 .2.1.3.1Z"/><path fill="#C9FC6E" d="M13.7 10.05H10v1h3.7c0-.2-.1-.3-.1-.5 0-.1 0-.3.1-.5ZM49 10c0 .2.108.3.108.5s0 .3-.108.5h4v-1h-4ZM18.6 10.25V11.15h25.7v-1H18.5c.1 0 .1 0 .1.1Z"/><path stroke="#999" d="M29 42h5"/><path fill="#fff" d="M49.2 10.05c-.1-.5-.3-.9-.7-1.3-1-1-2.6-1-3.5 0l-1.3 1.3h.6v1c.1.5.3.9.7 1.3.4.4.9.6 1.4.7l-11.3 11.3c-.1.1-.1.2-.1.4v8.7h-7v-8.7c0-.1-.1-.3-.1-.4l-11.5-11.3c.5-.1 1-.3 1.4-.7.4-.4.6-.8.7-1.3v-1h.6l-1.3-1.3c-1-1-2.6-1-3.5 0-.4.4-.6.8-.7 1.3 0 .2-.1.3-.1.5s0 .3.1.5c0 .2.1.4.2.6.1.2.3.5.5.7l12.6 12.6v10.5l-7.5 18c-.5 1.3.1 2.7 1.4 3.3.3.1.6.2.9.2.3 0 .7-.1 1-.2.6-.3 1.1-.7 1.3-1.4l7-16.9h.7l7 16.9c.3.6.7 1.1 1.3 1.4.6.3 1.3.3 1.9 0 1.3-.5 1.9-2 1.3-3.3l-7.5-18v-10.5l12.6-12.6c.2-.2.4-.4.5-.7.1-.2.2-.4.2-.6 0-.2.1-.3.1-.5.1-.1.1-.3.1-.5Zm-3.5 1.6c-.2-.2-.3-.4-.3-.6-.1-.2-.1-.3-.1-.5s0-.3.1-.5l.3-.6c.1-.1.3-.2.4-.3.1 0 .1 0 .2-.1.1 0 .2 0 .3-.1.2 0 .4 0 .6.1l.6.3c.1.1.1.2.2.3.1.1.1.2.1.3.1.2.1.3.1.5s0 .3-.1.5v.1c-.1.2-.2.3-.3.5-.6.7-1.5.7-2.1.1Zm-5.2 44.1c-.4-.2-.7-.4-.8-.8l-7.2-17.2c-.1-.2-.3-.3-.5-.3h-1.3c-.2 0-.4.1-.5.3l-7.1 17.2c-.2.4-.4.7-.8.8-.4.2-.8.2-1.1 0-.8-.3-1.1-1.2-.8-2l7.5-18.1v-1.3h7v1.3l7.5 18.1c.3.8 0 1.6-.8 2-.3.2-.7.2-1.1 0Zm-23.3-44.1c-.6.6-1.6.6-2.1 0-.1-.1-.3-.3-.3-.5v-.1c-.1-.2-.1-.3-.1-.5s0-.3.1-.5c0-.1.1-.2.2-.3.1-.1.1-.2.2-.2.1-.1.3-.3.5-.3.2-.1.4-.1.6-.1.2 0 .4 0 .6.1.2.1.3.2.5.3.2.2.3.4.3.6.1.2.1.3.1.5s0 .3-.1.5c-.3.1-.4.3-.5.5Z"/><path fill="#C9FC6E" d="M31 6h1v5h-1z"/></svg>