<svg xmlns="http://www.w3.org/2000/svg" fill="none" viewBox="0 0 63 63"><path fill="#fff" d="M24.3 24.8c.9 0 1.8-.3 2.5-1 1.4-1.4 1.4-3.6 0-4.9-1.3-1.3-3.6-1.3-4.9 0-.7.7-1 1.5-1 2.5 0 .9.4 1.8 1 2.5.6.5 1.5.9 2.4.9Zm-1.8-5.3c.5-.5 1.1-.7 1.8-.7s1.3.3 1.8.7c1 1 1 2.6 0 3.5-1 1-2.6 1-3.5 0-.5-.5-.7-1.1-.7-1.8-.1-.6.1-1.2.6-1.7Z"/><path fill="#C9FC6E" d="M38.8 9.5c.5 0 1-.2 1.4-.6.8-.8.8-2 0-2.8-.8-.8-2.1-.8-2.8 0-.8.8-.8 2 0 2.8.3.4.8.6 1.4.6Zm-.7-2.7c.2-.2.4-.3.7-.3.3 0 .5.1.7.3.4.4.4 1 0 1.4-.4.4-1 .4-1.4 0-.4-.4-.4-1 0-1.4ZM15.6 26.6v-4.1c2-.3 3.5-2.4 3.5-4.9 0-2.8-1.8-5-4-5s-4 2.2-4 5c0 2.5 1.5 4.6 3.5 4.9v4.1c.2 0 .3-.1.5-.1s.3.1.5.1Zm-3.5-9c0-2.2 1.3-4 3-4s3 1.8 3 4-1.3 4-3 4-3-1.8-3-4ZM15.6 31.7v-.2h-.5c-.2 0-.3 0-.5-.1V33c0 .3.2.5.5.5s.5-.2.5-.5v-1.3Z"/><path fill="#fff" d="m40.9 31.5-6.7-6.7 11-11c.5-.5.7-1.1.7-1.8s-.3-1.3-.7-1.8c-.9-.9-2.6-.9-3.5 0l-20.9 21-3.9-3.9s-.1 0-.1-.1c-.3-.3-.7-.5-1.2-.6-.2 0-.3-.1-.5-.1s-.3 0-.5.1c-.5.1-.9.3-1.2.6l-.1.1c-.2.2-.4.5-.5.8-.1.1-.1.3-.1.4v.1c0 .2-.1.3-.1.5s0 .3.1.5v.1c0 .1.1.3.1.4.1.2.2.3.3.5l.1.1.2.2 1.3 1.3v-.6c.2 0 .3.1.5.1h.5c1-.2 1.8-1.1 2-2.1l2.8 2.8c.2.2.5.2.7 0L42.3 11c.6-.6 1.6-.6 2.1 0 .3.3.4.7.4 1.1 0 .4-.2.8-.4 1.1L33.1 24.5c-.2.2-.2.5 0 .7l6.7 6.7-4.9 4.9-6.7-6.7c-.1-.1-.3-.1-.4-.1-.1 0-.3 0-.4.1l-5.7 5.7c-.6.6-1.5.6-2.1 0l-4.1-4.1v1.4l3.4 3.4c1 1 2.6 1 3.5 0l5.3-5.3 6.7 6.7.7.7v7.9l-6.3 6.3c-1 1-1 2.6 0 3.5.5.5 1.1.7 1.8.7s1.3-.2 1.8-.7l7.1-7.1c.5-.5.7-1.1.7-1.8v-9l.3-.3 4.6 4.6v8.9c0 1.3.9 2.4 2.1 2.6.7.1 1.5-.1 2-.6.6-.5.9-1.2.9-1.9v-10c0-.7-.3-1.3-.7-1.8l-8.5-8.4Zm-25.3-1c-.2.1-.3.1-.5.1s-.3 0-.5-.1c-.3-.1-.6-.3-.7-.6 0-.1-.1-.1-.1-.2s-.1-.1-.1-.2V28.7c0-.1 0-.2.1-.2 0-.1.1-.2.1-.2l.2-.2c.2-.2.3-.3.6-.3.2-.1.3-.1.5-.1s.3 0 .5.1l.6.3c.3.3.4.6.4 1.1-.1.5-.5 1.1-1.1 1.3Zm33.5 21.3c0 .4-.2.9-.5 1.1-.3.3-.8.4-1.2.3-.7-.1-1.2-.8-1.2-1.6v-9.1c0-.1-.1-.3-.1-.4L41 37c-.2-.2-.5-.2-.7 0l-.9 1c-.1.1-.1.2-.1.4v9.2c0 .4-.2.8-.4 1.1l-7.1 7.1c-.6.6-1.5.6-2.1 0-.6-.6-.6-1.5 0-2.1l6.5-6.5c.1-.1.1-.2.1-.4v-8.3c0-.1-.1-.3-.1-.4l-.5-.5 4.9-4.9 8.1 8.1c.3.3.4.7.4 1.1v9.9Z"/></svg>