<svg xmlns="http://www.w3.org/2000/svg" fill="none" viewBox="0 0 63 63"><path fill="#fff" d="M12.3 44.413c0 .7.3 1.3.7 1.8.5.5 1.1.7 1.8.7s1.3-.3 1.8-.7l8.9-8.9c-.1-.2-.1-.3-.2-.5s-.1-.3-.2-.5l-9.2 9.2c-.6.6-1.6.6-2.1 0-.3-.3-.4-.7-.4-1.1 0-.4.2-.8.4-1.1l9.5-9.5c-.1-.1-.2-.2-.4-.3-.2-.1-.2-.2-.4-.3l-9.5 9.5c-.4.4-.7 1.1-.7 1.7Z"/><path fill="#fff" d="m24 33.113 2.2-2.2c.1.1.2.3.3.4l1.8 1.8-2.5 2.5c.1.2.2.3.2.5.1.2.1.3.2.5l2.7-2.7 3.5 3.5-5.3 5.3c-.5.5-.7 1.1-.7 1.8s.3 1.3.7 1.8c.5.5 1.1.7 1.8.7s1.3-.3 1.8-.7l5.3-5.4 1-1 .8-.8c.9-.9 1-2.2.3-3.2-.1-.1-.2-.3-.3-.4l-.4-.4-4.2-4.2 6.4-6.4 3.2 3.2c.5.5 1.1.7 1.8.7s1.3-.3 1.8-.7l5.7-5.7c1-1 1-2.6 0-3.5-1-1-2.6-1-3.5 0l-3.9 3.9-3.9-3.9-5.8-5.5c-.9-.9-2.6-.9-3.5 0l-5.7 5.7c-1 1-1 2.6 0 3.5.5.5 1.1.7 1.8.7s1.3-.3 1.8-.7l3.9-3.9 1.4 1.4-6.7 6.7-1.4 1.4c-.6.6-.8 1.4-.7 2.1l-2.5 2.5c.1.1.2.2.4.3.2.1.1.3.2.4Zm8.9-15.9-4.3 4.2c-.3.3-.6.5-1 .5s-.8-.2-1.1-.4c-.6-.6-.6-1.5 0-2.1l5.7-5.7c.6-.6 1.6-.6 2.1 0l4 4c-.9 0-1.9.3-2.6 1l-.3.3-1.8-1.8c-.2-.2-.5-.2-.7 0Zm2.8 2.8.4-.4.3-.3c.9-.9 2.6-.9 3.5 0l.1.1 1.1 1.1.6.6 2.5 2.5c.2.2.5.2.7 0l4.2-4.2c.6-.6 1.5-.6 2.1 0 .6.6.6 1.5 0 2.1l-5.7 5.7c-.3.3-.7.4-1.1.4-.4 0-.8-.2-1.1-.4l-3-3.3-.4-.4-.4-.4-1.1-1.1s-.1 0-.1-.1c-.2-.1-.4-.1-.6.1-.2.2-.2.5 0 .7l1.1 1.1-6.4 6.4-1.8-1.8-1.6-1.6 6.4-6.4.3-.4Zm-8.5 8.5 1.1-1.1.4.4.5.5.9.9.9.9.5.5.7.7 4.8 4.8.2.2c.3.3.4.7.4 1 0 .3-.1.5-.2.8-.1.1-.1.2-.2.3l-1 1-6 6c-.6.6-1.6.6-2.1 0-.3-.3-.4-.7-.4-1.1 0-.4.2-.8.4-1.1l5.7-5.7c.2-.2.2-.5 0-.7l-3.9-3.9-.4-.4-.5-.1-1.8-1.8c-.1-.1-.2-.3-.3-.4-.1-.2-.1-.4-.1-.6 0-.4.1-.8.4-1.1Z"/><path fill="#C9FC6E" d="M38.1 36.013c1.6-3 4.8-5 8.4-5 5.2 0 9.5 4.3 9.5 9.5s-4.3 9.4-9.5 9.4-9.5-4.2-9.5-9.5v-.5l-1 1c.2 5.6 4.8 10 10.5 10 5.8 0 10.5-4.7 10.5-10.5s-4.7-10.5-10.5-10.5c-3.9 0-7.3 2.1-9.1 5.3l.4.4c.1.1.2.2.3.4ZM16.5 50.913c5.8 0 10.5-4.7 10.5-10.5 0-1.4-.3-2.7-.8-3.9-.1-.2-.1-.3-.2-.5s-.1-.3-.2-.5c-.5-.9-1.1-1.7-1.8-2.5-.1-.1-.2-.2-.4-.3-.2-.1-.2-.2-.4-.3-1.7-1.5-4.1-2.5-6.7-2.5-5.8 0-10.5 4.7-10.5 10.5s4.7 10.5 10.5 10.5Zm0-20c2.3 0 4.4.8 6.1 2.2.1.1.2.2.4.3.2.1.2.2.4.3.7.7 1.3 1.6 1.7 2.5.1.2.2.3.2.5.1.2.1.3.2.5.3 1 .5 2 .5 3.1 0 5.2-4.3 9.5-9.5 9.5s-9.5-4.1-9.5-9.4c0-5.3 4.3-9.5 9.5-9.5Z"/><path fill="#fff" d="M43.8 18.913c.9 0 1.8-.3 2.5-1 1.4-1.4 1.4-3.6 0-4.9-1.4-1.3-3.6-1.4-5 0-.7.7-1 1.5-1 2.5 0 .9.4 1.8 1 2.5.7.6 1.6.9 2.5.9Zm0-6c.6 0 1.3.2 1.8.7 1 1 1 2.6 0 3.5-1 1-2.6 1-3.5 0-.5-.5-.7-1.1-.7-1.8s.3-1.3.7-1.8c.4-.3 1.1-.6 1.7-.6Z"/></svg>