<svg xmlns="http://www.w3.org/2000/svg" fill="none" viewBox="0 0 63 63"><path fill="#fff" d="m4 30.45 30.3 30.3h1.4L4 29.05v1.4ZM31 27.95h-2.6l-4.6-4.6c.4-.3.9-.4 1.4-.4h.8l-.5-.5-.5-.4c-.9 0-1.7.4-2.3 1l-1.4 1.4c-1 1-1 2.6 0 3.5l6 6-5.3 5.3c-.5.5-.7 1.1-.7 1.8s.3 1.3.7 1.8c.5.5 1.1.7 1.8.7s1.3-.2 1.8-.7l7.1-7.1c1-1 1-2.6 0-3.5l-3.2-3.2H32l-.5-.5-.5-.6Zm.9 5c.6.6.6 1.5 0 2.1l-7.1 7.1c-.6.6-1.5.6-2.1 0-.3-.3-.4-.7-.4-1.1 0-.4.2-.8.4-1.1l5.7-5.6c.1-.1.1-.2.1-.4 0-.1-.1-.3-.1-.4l-5.6-5.6-.8-.7c-.4-.4-.5-1.1-.3-1.7.1-.2.2-.3.3-.5l.2-.2.8-.8 3.9 3.9.5.5.5.5 4 4Z"/><path fill="#C9FC6E" d="m33.4 28.95-.5-.5-.5-.5-5-5-.5-.5-.5-.5-5.8-5.8c-.2-.2-.5-.2-.7 0-.2.2-.2.5 0 .7l5.1 5.1.5.5.5.5 5 5 .5.5.5.5 2.7 2.7v-1.4l-1.3-1.3Z"/><path fill="#fff" d="M44.2 21.95c-1.9 0-3.5 1.6-3.5 3.5s1.6 3.5 3.5 3.5 3.5-1.6 3.5-3.5-1.6-3.5-3.5-3.5Zm0 6c-1.4 0-2.5-1.1-2.5-2.5s1.1-2.5 2.5-2.5 2.5 1.1 2.5 2.5-1.2 2.5-2.5 2.5ZM39.6 32.45v-7c0-1.9-1.6-3.5-3.5-3.5h-9.8l.5.5.5.5h8.8c1.4 0 2.5 1.1 2.5 2.5V32.55c0 .1.1.3.1.4l5.1 5.1c.3.3.4.7.4 1.1 0 .4-.2.9-.5 1.1-.6.5-1.5.4-2.1-.2l-5.6-5.6c-.3-.3-.4-.7-.4-1.1v-7.1c-.1-.2-.2-.4-.5-.4s-.5.2-.5.5v1.5h-2.3l.5.5.5.5h1.3v4.5c0 .7.3 1.3.7 1.8l5.6 5.6c.5.5 1.2.8 1.9.8.6 0 1.1-.2 1.6-.6.6-.5.9-1.2.9-1.9s-.3-1.3-.7-1.8l-5-4.8Z"/><path fill="#C9FC6E" d="M31.2 54.85c.5.5 1.1.7 1.8.7s1.3-.3 1.8-.7c.2-.2.2-.5 0-.7-.2-.2-.5-.2-.7 0-.6.6-1.6.6-2.1 0l-21.3-21.2c-.2-.2-.6-.2-.7 0-.1.2-.2.5 0 .7l21.2 21.2Z"/></svg>