<svg xmlns="http://www.w3.org/2000/svg" fill="none" viewBox="0 0 63 63"><path fill="#C9FC6E" d="M42.5 34.9c-.2.2-.2.5 0 .7.1.1.2.1.4.1s.3 0 .4-.1l11.9-11.9h-1.4L42.5 34.9Z"/><path fill="#fff" d="M56.9 18.8H31.5c-.7 0-1.3.3-1.8.7l-5.6 5.6c-.4.4-.6.8-.7 1.3-.1.3-.1.7 0 1 .1.3.2.7.4 1 .4.6 1.1 1 1.8 1h.2c.7 0 1.3-.3 1.8-.7l4.9-4.9h1.8l-3.8 3.8-1.3 1.4c-.6.6-.8 1.4-.7 2.1l-5 4.9h-8.9c-1.3 0-2.4.9-2.6 2.1-.1.7.1 1.5.6 2 .5.6 1.2.9 1.9.9h10c.7 0 1.3-.3 1.8-.7l5.3-5.3 4.6 4.6v8.9c0 1.3.9 2.4 2.1 2.6h.4c.6 0 1.2-.2 1.6-.6.6-.5.9-1.2.9-1.9v-10c0-.7-.3-1.3-.7-1.8l-4.6-4.6 7.4-7.4c.3-.3.5-.6.7-1h12.9c1.4 0 2.5-1.1 2.5-2.5s-1.1-2.5-2.5-2.5Zm-.8 4H44.3c.2-1.1-.2-2.2-1-3h13.6c.8 0 1.5.7 1.5 1.5s-.7 1.5-1.5 1.5h-.8Zm-13.3 1c-.1.1-.1.2-.2.3l-7.4 7.4-3.5-3.5 4.2-4.2H37c.3 0 .5-.2.5-.5 0-.1 0-.2-.1-.2-.1-.2-.2-.3-.4-.3h-4.5c-.1 0-.3.1-.4.1L26.9 28c-.3.3-.7.5-1.2.4-.4 0-.8-.3-1.1-.6-.1-.1-.1-.2-.2-.4-.1-.3-.1-.7 0-1 .1-.2.2-.4.4-.6l5.6-5.6c.3-.3.7-.4 1.1-.4h9.6c.5 0 1 .3 1.5.6l.1.1c.6.6.8 1.5.7 2.3 0 .2-.1.3-.2.5-.2.1-.3.3-.4.5Zm-2.6 24.7c0 .4-.2.9-.5 1.1-.3.3-.8.4-1.2.3-.7-.1-1.3-.8-1.3-1.6v-9.1c0-.1-.1-.3-.1-.4l-4.7-4.7-.4-.2-.4-.4-1.8-1.8c-.1-.1-.2-.3-.3-.4-.1-.2-.1-.4-.1-.6 0-.4.1-.8.4-1.1l1-1.1.4.4.5.5 1.9 1.9.5.5.7.7 5 5c.3.3.4.7.4 1.1v9.9ZM14.6 40c-.4 0-.9-.2-1.2-.5-.3-.3-.4-.8-.3-1.2.1-.7.8-1.2 1.6-1.2h9.1c.1 0 .3-.1.4-.1l4.8-4.8c.1.1.2.3.3.4l1.8 1.8-5.3 5.3c-.4.2-.8.3-1.2.3h-10ZM43.8 17.8c1.9 0 3.5-1.6 3.5-3.5s-1.6-3.5-3.5-3.5-3.5 1.6-3.5 3.5 1.6 3.5 3.5 3.5Zm0-6c1.4 0 2.5 1.1 2.5 2.5s-1.1 2.5-2.5 2.5-2.5-1.1-2.5-2.5 1.2-2.5 2.5-2.5Z"/><path fill="#C9FC6E" d="M23.5 26.4H5.9c-.3 0-.5.2-.5.5s.2.5.5.5h17.6c-.1-.3-.1-.6 0-1Z"/></svg>