<svg xmlns="http://www.w3.org/2000/svg" fill="none" viewBox="0 0 63 63"><path fill="#fff" d="M54.7 25h-29L13.3 12.6c-1-1-2.6-1-3.5 0-1 1-1 2.6 0 3.5l13.4 13.4v19c0 1.4 1.1 2.5 2.5 2.5s2.5-1.1 2.5-2.5V32h10.5c.4 0 .8-.1 1.2-.2l3.4 3.4c.5.5 1.1.7 1.8.7.6 0 1.3-.2 1.8-.7l5.2-5.2h2.7c1.4 0 2.5-1.1 2.5-2.5S56.1 25 54.7 25Zm0 4h-1.8c.2-.4.3-.8.3-1.2 0-.7-.3-1.3-.7-1.8h2.3c.8 0 1.5.7 1.5 1.5s-.7 1.5-1.6 1.5Zm-4 1-4.5 4.5c-.6.6-1.5.6-2.1 0l-3.2-3.2-.4-.3-.4-.4-.6-.6-.4-.4s-.1 0-.1-.1c-.1-.1-.3-.1-.5 0 0 0-.1 0-.1.1-.1.1-.2.3-.1.4 0 .1.1.2.1.3l.7.7H28.2v-5h10.5c.7 0 1.3.3 1.8.7 0 0 0 .1.1.1.3.4.7.8 1.1 1.2.2.2.4.4.5.6l.5.5.5.5c.2.2.4.3.5.5l1 1c.2.2.5.2.7 0l1-1 .5-.5.5-.5 2.3-2.3c.3-.3.7-.4 1.1-.4.4 0 .8.2 1.1.4.3.3.4.7.4 1.1 0 .4-.2.8-.4 1.1h-.2l-.5.5-.5.5ZM24.2 48.5v-21c0-.7.5-1.3 1.2-1.5H27.2v22.5c0 .8-.7 1.5-1.5 1.5s-1.5-.6-1.5-1.5ZM11.6 12.9c.4 0 .8.1 1.1.4l12 12c-.8.4-1.4 1.3-1.4 2.2v.6L10.5 15.5c-.6-.6-.6-1.5 0-2.1.3-.4.7-.5 1.1-.5ZM49 26c0 .1 0 .1 0 0l-3 3h-1.9c-.9-.8-2-1.9-2.9-3H49Z"/><path fill="#C9FC6E" d="M30.7 52h-8c-.3 0-.5.2-.5.5s.2.5.5.5h8c.3 0 .5-.2.5-.5s-.2-.5-.5-.5ZM11.2 9.1c-.2-.2-.5-.2-.7 0l-5.7 5.7c-.2.2-.2.5 0 .7.1.1.2.1.4.1s.3 0 .4-.1l5.7-5.7c.1-.2.1-.5-.1-.7Z"/><path fill="#fff" d="M38.7 24c1.9 0 3.5-1.6 3.5-3.5S40.7 17 38.7 17s-3.5 1.6-3.5 3.5 1.6 3.5 3.5 3.5Zm0-6c1.4 0 2.5 1.1 2.5 2.5S40.1 23 38.7 23s-2.5-1.1-2.5-2.5 1.1-2.5 2.5-2.5Z"/></svg>