<svg xmlns="http://www.w3.org/2000/svg" fill="none" viewBox="0 0 63 63"><path fill="#fff" d="M31.7 20c1.9 0 3.5-1.6 3.5-3.5S33.7 13 31.7 13s-3.5 1.6-3.5 3.5 1.6 3.5 3.5 3.5Zm0-6c1.4 0 2.5 1.1 2.5 2.5S33.1 19 31.7 19s-2.5-1.1-2.5-2.5 1.1-2.5 2.5-2.5Z"/><path fill="#fff" d="M51.7 21H22.2v-5.5c0-.2 0-.3-.1-.5-.3.3-.6.5-.9.7v5.9c0 .3.2.5.5.5h30c.8 0 1.5.7 1.5 1.5s-.7 1.4-1.5 1.4h-16c-.3 0-.5.2-.5.5V35h-7v-9.5c0-.3-.2-.5-.5-.5h-8c-.8 0-1.5-.7-1.5-1.5v-7.9c-.4-.2-.7-.4-.9-.7 0 .2-.1.3-.1.5v8c0 1.4 1.1 2.5 2.5 2.5h7.5v10.5L13.8 49.9c-.5.5-.7 1.1-.7 1.8s.3 1.3.7 1.8c.5.5 1.1.7 1.8.7s1.3-.2 1.8-.7L30.8 40h1.3l2.2 5.4-6.9 2.9c-1.3.5-1.9 2-1.4 3.3.5 1.3 2 1.9 3.3 1.4l9.2-3.8c.6-.3 1.1-.7 1.4-1.4.3-.6.3-1.3 0-1.9L36.2 37V26h15.5c1.4 0 2.5-1.1 2.5-2.5S53.1 21 51.7 21ZM38.9 46.2c.2.4.2.8 0 1.1-.2.3-.4.7-.8.8L28.9 52c-.8.3-1.6 0-2-.8-.3-.8 0-1.6.8-2l7.4-3.1c.1-.1.2-.1.3-.3.1-.2.1-.3 0-.4l-2.6-6.2c-.1-.2-.3-.3-.5-.3h-1.8c-.1 0-.3.1-.4.1L16.6 52.7c-.6.6-1.5.6-2.1 0-.3-.3-.4-.7-.4-1.1 0-.4.2-.8.4-1.1l13.6-13.6c.1-.1.1-.2.1-.4V36h7v1.3l3.7 8.9Z"/><path fill="#C9FC6E" d="M19.7 16c.5 0 1-.1 1.5-.4.4-.2.7-.4.9-.7.6-.6 1.1-1.5 1.1-2.5 0-1.9-1.6-3.5-3.5-3.5s-3.5 1.6-3.5 3.5c0 1 .4 1.9 1.1 2.5.3.3.6.5.9.7.5.3 1 .4 1.5.4Zm0-6c1.4 0 2.5 1.1 2.5 2.5 0 .6-.2 1.1-.5 1.5-.2.3-.5.5-.7.7-.4.2-.8.3-1.2.3-.4 0-.9-.1-1.2-.3-.3-.2-.5-.4-.7-.7-.3-.4-.5-.9-.5-1.5-.2-1.3.9-2.5 2.3-2.5Z"/></svg>