<svg xmlns="http://www.w3.org/2000/svg" fill="none" viewBox="0 0 63 63"><path fill="#C9FC6E" d="M56.9 46c-1.1 0-2 .9-2 2s.9 2 2 2 2-.9 2-2-.9-2-2-2Zm0 3c-.6 0-1-.4-1-1s.4-1 1-1 1 .4 1 1-.5 1-1 1ZM51 45.8c-.2.2-.2.5 0 .7.3.3.4.7.4 1.1 0 .4-.2.8-.4 1.1-.6.6-1.5.6-2.1 0L36.6 36.3c-.2.3-.4.5-.6.7h-.1l12.3 12.3c.5.5 1.1.7 1.8.7.6 0 1.3-.2 1.8-.7.5-.5.7-1.1.7-1.8s-.3-1.3-.7-1.8c-.3-.1-.6-.1-.8.1Z"/><path fill="#fff" d="M33.5 19.1c.9 0 1.8-.3 2.5-1s1-1.5 1-2.5c0-.9-.4-1.8-1-2.5-1.4-1.4-3.6-1.4-5 0s-1.4 3.6 0 4.9c.7.8 1.6 1.1 2.5 1.1Zm-1.8-5.3c.5-.5 1.1-.7 1.8-.7.6 0 1.3.2 1.8.7.5.5.7 1.1.7 1.8s-.3 1.3-.7 1.8c-1 1-2.6 1-3.5 0-1-1-1-2.6-.1-3.6ZM36.6 36.3c.2-.3.4-.7.4-1.2.1-.7-.2-1.5-.7-2l-4.9-4.9v-7c0-.9-.4-1.8-1-2.5-1.3-1.3-3.6-1.3-4.9 0l-7.8 7.8-1.5 1.5c-1 1-1 2.5 0 3.5V38H8.7c-1.4 0-2.5 1.1-2.5 2.5S7.3 43 8.7 43h10c1.4 0 2.5-1.1 2.5-2.5v-4l2.1 2.1v8.9c0 1.3.9 2.4 2.1 2.6h.4c.6 0 1.2-.2 1.6-.6.6-.5.9-1.2.9-1.9v-10c0-.7-.3-1.3-.7-1.8L23 31.2l3.5-3.5v1.6c0 .7.3 1.3.7 1.8l5.6 5.6c.5.5 1.2.8 1.9.8.5 0 .9-.1 1.3-.4h.1c.1-.3.3-.6.5-.8Zm-16.4 4.2c0 .8-.7 1.5-1.5 1.5h-10c-.8 0-1.5-.7-1.5-1.5S7.8 39 8.7 39h8c.3 0 .5-.2.5-.5v-6l3 3v5Zm6.6-4c.3.3.4.7.4 1.1v10c0 .4-.2.9-.5 1.1-.3.3-.8.4-1.2.3-.7-.1-1.2-.8-1.2-1.6v-9.1c0-.1-.1-.3-.1-.4L21.3 35l-.5-.5-.5-.5-3-3-.3-.3c-.1-.1-.2-.2-.2-.4-.3-.6-.2-1.3.2-1.8l1.1-1.1.4.4.5.5 1.9 1.9.5.5 5.4 5.8Zm9-.9c-.1.2-.3.4-.5.6-.1.1-.2.1-.2.1-.6.3-1.3.1-1.8-.3l-5.6-5.6c-.3-.3-.4-.7-.4-1.1v-5c0-.2-.1-.3-.2-.4-.1 0-.2-.1-.3-.1-.3 0-.5.2-.5.5v2l-4.2 4.2-3.5-3.5 7.4-7.4c.9-.9 2.6-.9 3.5 0l.1.1c.4.5.7 1 .7 1.7v7.1c0 .1.1.3.1.4l5.1 5.1c.3.3.5.7.4 1.2.1 0 0 .2-.1.4Z"/></svg>