<svg xmlns="http://www.w3.org/2000/svg" fill="none" viewBox="0 0 63 63"><path fill="#fff" fill-rule="evenodd" d="M18.233 42.578 6 18.41 8.787 17 21.02 41.167l17.67-4.82.822 3.014-17.67 4.82a3.124 3.124 0 0 1-3.61-1.603Z" clip-rule="evenodd"/><path fill="#fff" fill-rule="evenodd" d="M42.358 32.072a1.718 1.718 0 0 0-2.31.578l-4.503 7.181-1.323-.83 4.503-7.18a3.28 3.28 0 0 1 4.41-1.104l12.051 6.903a3.28 3.28 0 0 1 1.371 4.17l-1.434 3.252-1.43-.63 1.435-3.252a1.718 1.718 0 0 0-.718-2.184l-12.052-6.904Z" clip-rule="evenodd"/><path fill="#161616" d="M42.38 30.2a3.124 3.124 0 1 1-6.247 0 3.124 3.124 0 0 1 6.247 0Z"/><path fill="#fff" fill-rule="evenodd" d="M39.256 32.075a1.874 1.874 0 1 0 0-3.749 1.874 1.874 0 0 0 0 3.75Zm0 1.25a3.124 3.124 0 1 0 0-6.248 3.124 3.124 0 0 0 0 6.248Z" clip-rule="evenodd"/><path fill="#161616" d="M58 44.57a3.124 3.124 0 1 1-6.248 0 3.124 3.124 0 0 1 6.248 0Z"/><path fill="#fff" fill-rule="evenodd" d="M54.876 46.445a1.874 1.874 0 1 0 0-3.748 1.874 1.874 0 0 0 0 3.748Zm0 1.25a3.124 3.124 0 1 0 0-6.248 3.124 3.124 0 0 0 0 6.248Z" clip-rule="evenodd"/></svg>