<svg xmlns="http://www.w3.org/2000/svg" fill="none" viewBox="0 0 63 63"><path stroke="#fff" d="M37.814 25.75v6.5h5.343v-12.5c0-17-23.314-17-23.314 0v12.5h5.343v-6.5"/><path stroke="#fff" d="M39.257 21.25c0 4.432-3.486 8-7.757 8-4.27 0-7.757-3.568-7.757-8s3.486-8 7.757-8c4.27 0 7.757 3.568 7.757 8ZM32.486 35.75a3.5 3.5 0 0 1 3.5-3.5H44.5a3.5 3.5 0 0 1 3.5 3.5v2.936c0 .864-.7 1.564-1.564 1.564H34.05c-.864 0-1.564-.7-1.564-1.564V35.75ZM35.4 40.25h9.686v11.5a3.5 3.5 0 0 1-3.5 3.5H38.9a3.5 3.5 0 0 1-3.5-3.5v-11.5ZM15 35.75a3.5 3.5 0 0 1 3.5-3.5h8.514a3.5 3.5 0 0 1 3.5 3.5v2.936c0 .864-.7 1.564-1.564 1.564H16.564c-.864 0-1.564-.7-1.564-1.564V35.75ZM17.914 40.49H27.6v11.26a3.5 3.5 0 0 1-3.5 3.5h-2.686a3.5 3.5 0 0 1-3.5-3.5V40.49Z"/></svg>