<svg xmlns="http://www.w3.org/2000/svg" fill="none" viewBox="0 0 63 63"><path fill="#fff" d="M37.3 29.4c.4-1 1.4-1.6 2.4-1.5H55.6c.8 0 1.5.7 1.5 1.5s-.7 1.5-1.5 1.5h-15c-.2.1-.4.2-.4.5s.2.5.5.5h1.1l-3 7.2h1.1l3-7.2h12.8c1.4 0 2.5-1.1 2.5-2.5s-1.1-2.5-2.5-2.5h-16c-1.4 0-2.7.8-3.2 2.2l-4.1 10h1.1l3.8-9.7Z"/><path fill="#fff" d="m47.9 35.4.5.5.7-.7-.5-.5c-.9-.9-2.6-.9-3.5 0L40.7 39h1.4l3.6-3.6c.7-.6 1.7-.6 2.2 0ZM51.6 39H53l-3.2-3.1-.7.7 2.5 2.4ZM24.6 34.7c-.9-.9-2.6-.9-3.5 0L16.7 39h1.4l3.6-3.6c.6-.6 1.6-.6 2.1 0l.5.5.7-.7-.4-.5ZM27.6 39H29l-3.2-3.1-.7.7 2.5 2.4Z"/><path fill="#C9FC6E" d="M18.1 39H0v1H20.3l1-1h-3.2ZM46.7 39l-1 1H63v-1H46.7ZM22.7 39l-1 1H44.3l1-1H22.7Z"/><path fill="#fff" d="m63 45.3-.7.6c-1.5 1.4-4.2 1.4-5.7 0l-.8-.8c-.2-.2-.5-.2-.7 0l-.8.8c-1.6 1.5-4.1 1.5-5.7 0l-.8-.8c-.2-.2-.5-.2-.7 0l-.8.8c-1.5 1.4-4.2 1.4-5.7 0l-.4-.4-.4-.4c-.2-.2-.5-.2-.7 0l-.8.8c-1.6 1.5-4.1 1.5-5.7 0l-.8-.8c-.2-.2-.5-.2-.7 0l-.8.8c-1.6 1.5-4.1 1.5-5.7 0l-.8-.8c-.2-.2-.5-.2-.7 0l-.8.8c-1.6 1.5-4.1 1.5-5.7 0l-.4-.4-.4-.4c-.2-.2-.5-.2-.7 0l-.8.8c-1.6 1.5-4.1 1.5-5.7 0l-.8-.8c-.2-.2-.5-.2-.7 0l-.8.8c-1.6 1.5-4.1 1.5-5.7 0l-.6-.6v1.4c1.9 1.8 5.1 1.8 7 0l.5-.4.5.4c1.9 1.8 5.1 1.8 7 0l.5-.4.5.4c1.9 1.8 5.1 1.8 7 0l.5-.4.5.4c1.9 1.8 5.1 1.8 7 0l.5-.4.5.4c1.9 1.8 5.1 1.8 7 0l.5-.4.5.4c.9.9 2.2 1.4 3.5 1.4 1.3 0 2.6-.5 3.5-1.4l.5-.4.5.4c1.9 1.8 5.1 1.8 7 0l.5-.4.5.4c.9.9 2.2 1.4 3.5 1.4 1.3 0 2.6-.5 3.5-1.4"/><path fill="#C9FC6E" d="m49.1 35.2-.7.7-3.1 3.1-1 1-5.1 5.1c.2-.2.5-.2.7 0l.4.4 5.5-5.5 1-1 2.4-2.4.7-.7 4-4h-1.4l-3.4 3.3ZM15.8 45.2l.4.4 5.5-5.5 1-1 2.4-2.4.7-.7 4-4h-1.4l-3.3 3.3-.7.7-3.1 3-1 1-5.1 5.1c.2-.1.5-.1.6.1Z"/><path fill="#fff" d="M13.3 29.4c.3-.6.7-1.1 1.4-1.3.4-.1.7-.2 1.1-.2H31.7c.8 0 1.5.7 1.5 1.5s-.7 1.5-1.5 1.5H16.6c-.2.1-.4.2-.4.5s.2.5.5.5h1.1l-3 7.2h1.1l3-7.2h12.8c1.4 0 2.5-1.1 2.5-2.5s-1.1-2.5-2.5-2.5h-16c-.5 0-.9.1-1.3.3-.9.4-1.5 1-1.9 1.9L8.3 39h1.1l3.9-9.6ZM42.7 25.9c1.9 0 3.5-1.6 3.5-3.5s-1.6-3.5-3.5-3.5-3.5 1.6-3.5 3.5 1.5 3.5 3.5 3.5Zm0-6c1.4 0 2.5 1.1 2.5 2.5s-1.1 2.5-2.5 2.5-2.5-1.1-2.5-2.5 1.1-2.5 2.5-2.5ZM18.7 25.9c1.9 0 3.5-1.6 3.5-3.5s-1.6-3.5-3.5-3.5-3.5 1.6-3.5 3.5 1.5 3.5 3.5 3.5Zm0-6c1.4 0 2.5 1.1 2.5 2.5s-1.1 2.5-2.5 2.5-2.5-1.1-2.5-2.5 1.1-2.5 2.5-2.5Z"/></svg>