<svg xmlns="http://www.w3.org/2000/svg" fill="none" viewBox="0 0 63 63"><path fill="#fff" d="M33.1 12.5c0-1.9-1.6-3.5-3.5-3.5s-3.5 1.6-3.5 3.5c0 .3 0 .6.1.8.1.4.2.7.4 1 .6 1 1.7 1.7 3 1.7s2.3-.7 3-1.7c.2-.3.3-.6.4-1 0-.2.1-.5.1-.8Zm-1.2.9c-.1.4-.4.7-.7 1-.4.4-1 .7-1.7.7s-1.2-.3-1.7-.7c-.3-.3-.5-.6-.7-1-.1-.3-.2-.5-.2-.8 0-1.4 1.1-2.5 2.5-2.5s2.5 1.1 2.5 2.5c.2.2.1.5 0 .8Z"/><path stroke="#C9FC6E" d="M46 59.5 40 57m0 0-15-.5m15 .5-5-3.5h-1m-5.5 0h-12"/><path fill="#fff" d="M41.8 11.4c-.5 0-1 .1-1.4.3-1-.5-2.2-.3-3 .5l-1.2 1.2-1 1-2.6 2.6h-7c-.7 0-1.3.3-1.8.7 0 0-.1.1-.1.2l-.1.1c-.1.1-.1.2-.2.3-.1.1-.1.2-.2.3 0 0 0 .1-.1.1-.1.1-.1.3-.1.4v.6c0 .1 0 .2.1.3v.2c.1.3.2.6.5.8.4.4.9.7 1.4.8v20.6l-6.3 6.3c-1 1-1 2.6 0 3.5 1 1 2.6 1 3.5 0l6.8-6.8v8c0 1.4 1.1 2.5 2.5 2.5s2.5-1.1 2.5-2.5V22h7.5c1.4 0 2.5-1.1 2.5-2.5V14c.1-1.4-.9-2.5-2.2-2.6Zm-8.7 42.1c0 .8-.7 1.5-1.5 1.5s-1.5-.7-1.5-1.5v-18c0-.3-.2-.5-.5-.5s-.5.2-.5.5v8c0 .4-.2.8-.4 1.1l-7.1 7.1c-.6.6-1.5.6-2.1 0-.6-.6-.6-1.5 0-2.1l6.5-6.5c.1-.1.1-.2.1-.4V32h7v21.5Zm0-22.5h-7v-9h7v9Zm.5-10h-7.9c-.8 0-1.4-.5-1.6-1.2v-.5c0-.1.1-.3.2-.4.1-.1.1-.2.2-.3.3-.3.6-.4 1.1-.4H32.8c.1 0 .3-.1.4-.1l.4-.4.4-.7 2.7-2.7 1-1 .5-.5c.4-.4 1-.6 1.5-.5.2 0 .3.1.5.2h.1l.3.3c.2.2.3.5.3.8 0 .4-.1.9-.4 1.2l-.2.2-.5.5-.5.5-1.1 1-.5.5-.5.5-2.6 2.6c-.2.3-.6.4-1 .4Zm9.5-1.5c0 .8-.7 1.5-1.5 1.5h-6l3-3h1c.3 0 .5-.2.5-.5v-1l.9-.9c.5-.5.8-1.2.7-2 0-.5-.2-.9-.5-1.3.2 0 .3-.1.5 0 .8.1 1.4.8 1.4 1.6v5.6Z"/></svg>