<svg xmlns="http://www.w3.org/2000/svg" fill="none" viewBox="0 0 63 63"><path fill="#fff" d="M44 32h-.7l-.1.1-3 3-.5.5-.5.5-2.9 2.9c-.1.1-.1.2-.1.4v9.1c0 .8-.5 1.5-1.3 1.6-.5.1-.9-.1-1.2-.3-.3-.3-.5-.7-.5-1.1v-10c0-.4.2-.8.4-1.1l4.9-4.9.6-.6H37.3l.2.2-4.6 4.6c-.5.5-.7 1.1-.7 1.8v10c0 .7.3 1.4.9 1.9.5.4 1 .6 1.6.6h.4c1.2-.2 2.1-1.3 2.1-2.6v-8.9l2.1-2.1v4c0 .7.3 1.3.7 1.8l7.1 7.1c.5.5 1.1.7 1.8.7h.2c.7-.1 1.4-.4 1.8-1 .7-1 .6-2.4-.3-3.3l-6.3-6.3v-7.9c.2-.2.3-.3.4-.5H44V32Zm4.9 18.1c-.4 0-.9-.1-1.2-.4l-7.1-7.1c-.3-.3-.4-.7-.4-1.1v-5l3-3v7.1c0 .1.1.3.1.4l6.4 6.4c.6.6.7 1.4.2 2-.2.4-.5.7-1 .7ZM30.5 17.8c1.9 0 3.5-1.6 3.5-3.5s-1.6-3.5-3.5-3.5-3.5 1.6-3.5 3.5 1.6 3.5 3.5 3.5Zm0-6c1.4 0 2.5 1.1 2.5 2.5s-1.1 2.5-2.5 2.5-2.5-1.1-2.5-2.5 1.2-2.5 2.5-2.5Z"/><path fill="#fff" d="m37.7 31-5.9-5.9 1.1-1.1c.1 0 .1-.1.1-.2s0-.3-.1-.4c-.2-.2-.4-.2-.6-.1 0 0-.1 0-.1.1l-.4.4-.6.6-.4.4-.4.4-3.2 3.2c-.3.3-.7.4-1.1.4h-8c-.4 0-.9-.2-1.1-.5-.3-.3-.4-.8-.3-1.2.1-.7.8-1.2 1.6-1.2h7.1c.1 0 .3-.1.4-.1l1.8-1.8 1-1 .5-.5.6-.6 1.1-1.1.1-.1c.6-.6 1.4-.8 2.2-.7.5.1 1 .3 1.4.7l.7.7 6.7 6.7-3 3H40.3l1.5-1.5.5-.5.4-.4 1.1 1.1v.1c.3.3.4.8.4 1.2h1c.1-.7-.2-1.4-.7-2l-1.4-1.4-8.1-7.8c-.5-.5-1.2-.8-1.8-.9-.2-.1-.4-.1-.6-.1h-7L21 14.3c-.1-.1-.2-.2-.3-.4-.1-.1-.3-.2-.4-.3-.6-.4-1.3-.5-2-.3h-.1c-.1 0-.2.1-.3.1-.1 0-.2.1-.3.1l-.1.1-.1.1-.2.2v.1c0 .1-.1.1-.1.2-.1.1-.1.2-.2.3 0 .1-.1.1-.1.2s-.1.2-.1.3c0 .1 0 .1-.1.2 0 .1 0 .2-.1.3v.7c0 .1 0 .2.1.3 0 .1 0 .1.1.2 0 .1.1.2.2.3 0 0 0 .1.1.1.1.1.2.3.3.4l5.7 5.7c.5.5 1.1.7 1.8.7h1.5l-.9.9h-6.9c-1.3 0-2.4.9-2.6 2.1-.1.7.1 1.5.6 2 .5.6 1.2.9 1.9.9h8c.7 0 1.3-.3 1.8-.7l3.2-3.2 5.2 5.2h1.1V31ZM17.8 16.8c-.1-.1-.2-.3-.3-.5v-.1c-.1-.2-.1-.3-.1-.5v-.1c0-.2 0-.3.1-.5V15c.1-.2.2-.3.3-.4l.1-.1.1-.1c.1-.1.2-.1.4-.2.1 0 .3-.1.5-.1s.4.1.6.1c.2.1.3.2.4.3.1.1.2.3.3.4.3.6.2 1.2-.3 1.7-.5.7-1.5.7-2.1.2Zm6.7 6c-.4 0-.8-.2-1.1-.4l-4.3-4.3c.5-.1 1-.3 1.4-.7.4-.4.6-.9.7-1.4l3.7 3.7c.1.1.2.1.4.1H30l-3 3h-2.5Z"/><path fill="#C9FC6E" d="M55.7 31h-48c-.3 0-.5.2-.5.5s.2.5.5.5h48c.3 0 .5-.2.5-.5s-.2-.5-.5-.5ZM19.7 22.3c0-.8-.7-1.5-1.5-1.5s-1.5.7-1.5 1.5.7 1.5 1.5 1.5 1.5-.7 1.5-1.5Zm-2 0c0-.3.2-.5.5-.5s.5.2.5.5-.2.5-.5.5-.5-.2-.5-.5ZM20.7 14c.1.1.2.2.3.4l.7-.7c.6.5 1.3.7 2.1.7.9 0 1.8-.3 2.5-1s1-1.5 1-2.5c0-.9-.4-1.8-1-2.5-1.4-1.4-3.6-1.4-4.9 0-.7.7-1 1.5-1 2.5 0 .8.3 1.5.7 2.1l-.8.8c.1-.1.2 0 .4.2 0-.1 0-.1 0 0Zm1.4-5c.5-.5 1.1-.7 1.8-.7s1.3.2 1.8.7c.5.5.7 1.1.7 1.8s-.3 1.3-.7 1.8c-1 1-2.6 1-3.5 0-.5-.5-.7-1.1-.7-1.8-.2-.7.1-1.4.6-1.8Z"/></svg>