<svg width="63" height="63" viewBox="0 0 63 63" fill="none" xmlns="http://www.w3.org/2000/svg">
<g clip-path="url(#clip0_1724_5593)">
<g clip-path="url(#clip1_1724_5593)">
<path d="M38.8 39.2001C38.1 39.9001 37.8 40.7001 37.8 41.7001C37.8 42.6001 38.2 43.5001 38.8 44.2001C39.5 44.9001 40.4 45.2001 41.3 45.2001C42.2 45.2001 43.1 44.9001 43.8 44.2001C45.2 42.8001 45.2 40.6001 43.8 39.3001C42.4 37.8001 40.2 37.8001 38.8 39.2001ZM43 43.4001C42 44.4001 40.4 44.4001 39.5 43.4001C39 42.9001 38.8 42.3001 38.8 41.6001C38.8 40.9001 39.1 40.3001 39.5 39.8001C40 39.3001 40.6 39.1001 41.3 39.1001C41.9 39.1001 42.6 39.3001 43.1 39.8001C44 40.9001 44 42.5001 43 43.4001Z" fill="white"/>
<path d="M52.2 24.3C52.7 23.8 52.9 23.2 52.9 22.5C52.9 21.8 52.6 21.2001 52.2 20.7001C51.3 19.8001 49.6 19.8001 48.7 20.7001L37.7 31.7001L31 25L30.3 24.3V5.30005C30.3 3.90005 29.2 2.80005 27.8 2.80005C26.4 2.80005 25.3 4.00005 25.3 5.40005V24.4L25 24.7001L12.6 12.3C11.6 11.3 10 11.3 9.10003 12.3C8.60003 12.8 8.40002 13.4 8.40002 14.1C8.40002 14.8 8.70003 15.4 9.10003 15.9L24.7 31.5L31 37.8V55H32V37.5C32 37.4 31.9 37.2 31.9 37.1L25.8 31L28.3 28.5L30.8 26L37.5 32.7001C37.7 32.9001 38 32.9001 38.2 32.7001L49.5 21.4C50.1 20.8 51.1 20.8 51.6 21.4C52.2 22 52.2 22.9 51.6 23.5L35.1 40C35 40.1 35 40.2001 35 40.4001V55H36V40.6L52.2 24.3ZM9.40002 14.1C9.40002 13.7 9.60002 13.3 9.80002 13C10.4 12.4 11.3 12.4 11.9 13L24.6 25.7001C24.8 25.9001 25.1 25.9001 25.3 25.7001L26.1 24.9C26.2 24.8 26.2 24.7 26.2 24.5V5.40005C26.2 4.60005 26.9 3.90005 27.7 3.90005C28.5 3.90005 29.2 4.60005 29.2 5.40005V24.6C29.2 24.7 29.3 24.9 29.3 25L29.8 25.5L27.3 28L25 30.3L9.80002 15.1C9.50002 14.9 9.40002 14.5 9.40002 14.1Z" fill="white"/>
<path d="M35.5714 55H34.7778H32.3968H31.6032H7V56H32H35.1746H57V55H35.5714Z" fill="#C9FC6E"/>
</g>
</g>
<defs>
<clipPath id="clip0_1724_5593">
<rect width="63" height="63" fill="white"/>
</clipPath>
<clipPath id="clip1_1724_5593">
<rect width="63" height="63" fill="white"/>
</clipPath>
</defs>
</svg>
